<svg width="96" height="96" viewBox="0 0 96 96" fill="none" xmlns="http://www.w3.org/2000/svg">
  <rect width="96" height="96" rx="28" fill="url(#paint0_linear_1_1)"/>
  <path d="M48 18C34.7452 18 24 28.7452 24 42C24 58.1127 34.9812 73.9013 45.1152 81.8192C46.7865 83.1135 49.2135 83.1135 50.8848 81.8192C61.0188 73.9013 72 58.1127 72 42C72 28.7452 61.2548 18 48 18Z" fill="white" fill-opacity="0.95"/>
  <path d="M39.4 33.5C41.9576 33.5 44.1 35.6424 44.1 38.2V50.1C44.1 53.5794 41.2794 56.4 37.8 56.4C34.3206 56.4 31.5 53.5794 31.5 50.1V41.4C31.5 37.0385 35.0385 33.5 39.4 33.5Z" fill="#0F766E"/>
  <path d="M56.6 33.5C61.9615 33.5 65.5 37.0385 65.5 41.4V50.1C65.5 53.5794 62.6794 56.4 59.2 56.4C55.7206 56.4 52.9 53.5794 52.9 50.1V38.2C52.9 35.6424 55.0424 33.5 57.6 33.5H56.6Z" fill="#0EA5E9"/>
  <defs>
    <linearGradient id="paint0_linear_1_1" x1="10" y1="8" x2="84" y2="88" gradientUnits="userSpaceOnUse">
      <stop stop-color="#0F766E"/>
      <stop offset="1" stop-color="#0EA5E9"/>
    </linearGradient>
  </defs>
</svg>
